# xmcd CD database file
#
# Track frame offsets:
#	150
#	14364
#	37873
#	60466
#	81199
#
# Disc length: 1446 seconds
#
# Revision: 0
# Processed by: cddbd v1.5.1PL0 Copyright (c) Steve Scherf et al.
# Submitted via: CDex 1.51
#
DISCID=2f05a405
DTITLE=Denver and the Mile High Orchestra - Christmas Pre-Release EP
DYEAR=2003
DGENRE=Jazz
TTITLE0=Jingle Bells
TTITLE1=Frosty the Bluesman
TTITLE2=Born Tonight
TTITLE3=Little Drummer Boy
TTITLE4=Jesus Child
EXTD=YEAR: 2003
EXTT0=
EXTT1=
EXTT2=
EXTT3=
EXTT4=
PLAYORDER=
